PathFileType  4	(X/Y/Z) C:\Users\antoi\Documents\MyRepositories\mobilecap\ResultsAnalysis
DataRate	CameraRate	NumFrames	NumMarkers	Units	OrigDataRate	OrigDataStartFrame	OrigNumFrames
100.0	100.0	6	51	mm	100.0	30	232
Frame#	Time	r_knee			r_shank_antsup			r_ankle			r_calc			r_5meta			r_toe			L_knee			L_shank_antsup			L_ankle			L_calc			L_5meta			L_toe			r_sh2			r_sh3			r_sh4			L_sh2			L_sh3			r_thigh1			r_thigh2			r_thigh3			r_thigh4			r_thigh5			L_thigh1			L_thigh2			L_thigh3			L_thigh4			r.ASIS			r.PSIS			L.ASIS			L.PSIS			C7			R_Shoulder			L_Shoulder			R_Sternum			L_Sternum			R_humerus			R_elbow_med			R_elbow_lat			R_forearm			R_wrist_radius			R_wrist_ulna			L_humerus			L_elbow_med			L_elbow_lat			L_forearm			L_wrist_radius			L_wrist_ulna			R_HJC			L_HJC			R_HJC_reg			L_HJC_reg			
		X1	Y1	Z1	X2	Y2	Z2	X3	Y3	Z3	X4	Y4	Z4	X5	Y5	Z5	X6	Y6	Z6	X7	Y7	Z7	X8	Y8	Z8	X9	Y9	Z9	X10	Y10	Z10	X11	Y11	Z11	X12	Y12	Z12	X13	Y13	Z13	X14	Y14	Z14	X15	Y15	Z15	X16	Y16	Z16	X17	Y17	Z17	X18	Y18	Z18	X19	Y19	Z19	X20	Y20	Z20	X21	Y21	Z21	X22	Y22	Z22	X23	Y23	Z23	X24	Y24	Z24	X25	Y25	Z25	X26	Y26	Z26	X27	Y27	Z27	X28	Y28	Z28	X29	Y29	Z29	X30	Y30	Z30	X31	Y31	Z31	X32	Y32	Z32	X33	Y33	Z33	X34	Y34	Z34	X35	Y35	Z35	X36	Y36	Z36	X37	Y37	Z37	X38	Y38	Z38	X39	Y39	Z39	X40	Y40	Z40	X41	Y41	Z41	X42	Y42	Z42	X43	Y43	Z43	X44	Y44	Z44	X45	Y45	Z45	X46	Y46	Z46	X47	Y47	Z47	X48	Y48	Z48	X49	Y49	Z49	X50	Y50	Z50	X51	Y51	Z51	

30	0.29000000	-1130.45386	798.52886	-444.95434	-1099.68596	725.81826	-464.99281	-1220.50200	404.54741	-459.84326	-1294.76150	371.38941	-489.19877	-1116.24439	353.25543	-433.42906	-1074.82491	378.95149	-494.68234	-1157.54642	799.80653	-713.13815	-1134.09555	703.21101	-713.27785	-1242.79593	407.01698	-698.10960	-1310.91168	371.18744	-661.89404	-1135.62084	352.80613	-737.04428	-1098.48609	376.10486	-679.44594	-1137.64168	618.82637	-440.09003	-1169.30968	750.39066	-428.21508	-1205.68527	644.01238	-422.79245	-1219.14144	727.07476	-725.65619	-1238.52032	606.11321	-735.04812	-1090.46505	1116.80658	-411.12169	-1084.84087	1002.68354	-422.85984	-1138.18414	979.05845	-386.74598	-1199.31482	1109.76990	-386.47077	-1191.00707	992.52511	-398.08953	-1128.99834	1067.31926	-766.89397	-1118.68157	932.36419	-737.80838	-1241.64363	1060.46438	-732.91664	-1224.37423	922.35826	-718.84918	-1074.89526	1262.85439	-447.71485	-1248.90861	1346.95541	-530.16211	-1070.32386	1243.42049	-696.60267	-1251.67323	1348.87824	-632.51627	-1126.85629	1737.92861	-594.32107	-1032.74751	1677.88230	-415.89941	-1043.36213	1690.17962	-767.94635	-997.81903	1673.26782	-572.85753	-993.01146	1675.34883	-607.66443	-1057.03260	1537.59351	-358.94136	-1179.34350	1357.93194	-401.80655	-1147.41496	1358.53431	-339.62853	-1090.11940	1229.03489	-345.87726	-1068.30697	1097.80501	-357.38509	-1092.65690	1089.11529	-333.94401	-1045.11324	1565.91684	-824.06408	-1139.33777	1346.91966	-762.44487	-1099.49313	1356.24387	-831.36082	-1043.57181	1255.94915	-809.86145	-1023.04166	1100.53155	-799.05423	-1042.24591	1096.59204	-824.97219	-1170.69590	1205.48419	-469.38271	-1167.96331	1195.88067	-675.61202	-1159.86076	1199.33627	-481.06779	-1164.30930	1202.43029	-645.77214	
31	0.30000000	-1128.02800	797.81597	-444.99084	-1097.34100	725.35148	-464.60036	-1220.46397	404.48442	-459.91867	-1294.79990	371.46529	-489.23685	-1116.28509	353.30161	-433.48219	-1074.84493	379.00204	-494.71077	-1155.07315	799.09312	-712.55232	-1131.90966	702.42402	-712.93058	-1242.75191	407.05598	-698.10258	-1310.88531	371.16100	-661.88344	-1135.63196	352.84062	-737.01077	-1098.50627	376.14565	-679.42579	-1136.11930	618.49930	-439.95058	-1167.62454	751.39937	-427.96903	-1204.09456	644.07940	-422.48474	-1216.74605	726.86103	-725.47729	-1236.95957	605.95443	-735.10785	-1088.77790	1116.08772	-411.31376	-1083.21444	1002.27206	-422.98232	-1136.38708	978.41484	-386.71704	-1198.15225	1108.80967	-386.48332	-1189.28100	991.62833	-398.02296	-1127.46137	1066.69110	-766.58379	-1116.55903	931.92278	-737.72942	-1240.10572	1059.49350	-733.32577	-1222.36011	921.43240	-719.01258	-1073.96579	1261.73756	-447.31335	-1247.47583	1346.98594	-530.29845	-1069.36210	1242.39700	-696.58599	-1250.09610	1349.00424	-632.54689	-1121.10337	1736.79705	-593.92124	-1027.73820	1676.12204	-415.42489	-1037.50939	1688.71039	-767.48292	-992.52070	1671.29915	-572.22393	-987.50205	1673.32726	-607.06519	-1053.66437	1536.25785	-358.26785	-1177.55738	1357.79099	-401.14887	-1145.82220	1357.93889	-339.12391	-1088.90722	1228.29176	-345.35399	-1067.35004	1097.32194	-356.72815	-1091.92695	1088.49173	-333.59109	-1040.23699	1564.60320	-823.86132	-1136.44639	1346.22362	-762.75002	-1096.47209	1355.37743	-831.69654	-1040.95870	1254.86938	-809.97567	-1020.93328	1099.49667	-798.48936	-1040.04605	1095.49133	-824.63419	-1170.20203	1205.01331	-469.36374	-1167.27979	1195.46100	-675.59274	-1159.40759	1198.61431	-480.88852	-1163.63456	1201.87061	-645.84453	
32	0.31000000	-1125.26503	797.24513	-444.76217	-1094.87285	724.44052	-464.64439	-1220.43719	404.55080	-459.94003	-1294.77403	371.58110	-489.26353	-1116.29675	353.33990	-433.50292	-1074.85238	379.04739	-494.74754	-1152.26385	798.32353	-712.03479	-1129.54348	701.58731	-712.60583	-1242.67864	407.11258	-698.10724	-1310.88710	371.15493	-661.90347	-1135.63543	352.87161	-736.97819	-1098.51534	376.17014	-679.41667	-1134.52587	617.66151	-440.21231	-1164.99111	751.01221	-428.14681	-1202.28447	644.24220	-422.19995	-1214.08141	726.64351	-725.32170	-1235.16358	605.80138	-735.28573	-1087.80286	1115.85185	-411.23571	-1081.55505	1001.84188	-423.19802	-1134.43183	977.62802	-386.93499	-1196.93507	1107.68749	-386.47214	-1187.44851	990.65341	-397.95344	-1125.83044	1065.91855	-766.18656	-1114.20279	931.36489	-737.56949	-1238.51232	1058.31834	-733.63044	-1220.12605	920.34141	-719.23244	-1072.80101	1260.48930	-446.89307	-1246.09485	1346.92521	-530.31611	-1068.54021	1241.40578	-696.45426	-1248.64095	1349.07878	-632.35843	-1115.07179	1735.46163	-593.56042	-1022.46661	1674.19028	-414.91155	-1031.44477	1687.10705	-767.04465	-987.06868	1669.08096	-571.62944	-981.57399	1671.28615	-606.27561	-1050.01762	1534.85072	-357.42397	-1175.53506	1357.13997	-400.86631	-1143.94127	1357.35530	-338.39674	-1087.57458	1227.48368	-344.78371	-1066.42458	1096.39879	-356.73299	-1091.22882	1087.60746	-333.55016	-1035.23348	1563.03489	-823.53212	-1133.49534	1345.53062	-763.29050	-1093.29395	1354.30270	-831.93452	-1038.20869	1253.71874	-809.86164	-1018.69774	1098.31395	-798.04393	-1037.73269	1094.30358	-824.25599	-1169.58819	1204.44754	-469.24738	-1166.67022	1195.01305	-675.48179	-1158.82404	1197.80382	-480.63972	-1162.94443	1201.28896	-645.76698	
33	0.32000000	-1122.25364	796.42215	-445.07361	-1092.08097	723.30304	-464.72922	-1220.36344	404.70980	-459.92829	-1294.78462	371.66289	-489.28770	-1116.30041	353.40407	-433.51037	-1074.85085	379.08576	-494.77627	-1149.11854	797.54665	-711.84657	-1126.96986	700.71132	-712.45790	-1242.59007	407.19267	-698.18594	-1310.93300	371.18572	-661.99651	-1135.64298	352.90252	-736.95634	-1098.53351	376.18728	-679.40526	-1132.84242	616.84126	-440.32997	-1161.13391	749.04029	-428.50162	-1200.18540	644.06501	-422.24272	-1211.26510	726.41502	-725.22484	-1233.24342	605.81589	-735.36663	-1086.62695	1115.40954	-411.06513	-1079.88700	1001.23487	-423.25723	-1132.48302	976.77985	-387.05907	-1195.69593	1106.40824	-386.46381	-1185.55163	989.48078	-397.91571	-1124.08929	1065.23669	-765.93706	-1111.71110	930.71059	-737.18209	-1236.88598	1056.94348	-733.79247	-1217.64288	919.10869	-719.51264	-1071.51078	1259.21825	-446.52004	-1244.70855	1346.71483	-530.07403	-1067.89152	1240.30378	-696.18537	-1247.21990	1349.04521	-632.09253	-1108.80056	1733.96370	-593.17568	-1016.95609	1672.05257	-414.35913	-1025.20847	1685.23004	-766.44705	-981.43416	1666.58127	-571.14989	-976.15401	1668.78506	-605.55739	-1046.13739	1533.14606	-356.66568	-1173.29238	1356.37440	-400.64647	-1141.92449	1356.71476	-337.60240	-1086.12652	1226.47156	-344.25737	-1065.36744	1095.35546	-356.69865	-1090.46262	1086.47956	-333.66886	-1030.05175	1561.28410	-823.03185	-1130.43280	1344.66476	-763.72572	-1089.96434	1353.08063	-832.14926	-1035.32193	1252.38255	-809.65982	-1016.34233	1096.97469	-797.57151	-1035.40681	1092.96042	-823.61022	-1168.86660	1203.82311	-468.97928	-1166.15641	1194.43303	-675.21887	-1158.15241	1196.85284	-480.39868	-1162.21862	1200.62553	-645.57401	
34	0.33000000	-1118.90520	795.42251	-445.49895	-1088.91855	722.07584	-464.75814	-1220.28052	404.82556	-459.94991	-1294.85787	371.70640	-489.28609	-1116.34151	353.51229	-433.54040	-1074.86031	379.13317	-494.80592	-1145.71394	796.72930	-711.78876	-1124.12302	699.73783	-712.29325	-1242.51953	407.27189	-698.22906	-1310.96426	371.22325	-662.11353	-1135.66463	352.92644	-736.95279	-1098.56767	376.19978	-679.39975	-1130.87902	616.21204	-440.22205	-1157.17981	747.56679	-428.67681	-1197.89845	643.75650	-422.41244	-1208.29702	726.17600	-724.99580	-1231.28901	605.87071	-735.16596	-1085.22812	1114.47034	-410.93109	-1078.15961	1000.42759	-423.14387	-1130.55090	975.83133	-386.90514	-1194.47792	1104.94690	-386.52013	-1183.58904	988.04768	-397.96337	-1122.25838	1064.61787	-765.95663	-1109.11791	929.95152	-736.68630	-1235.22449	1055.32018	-733.93039	-1214.95350	917.70716	-719.77672	-1070.71880	1257.74349	-446.50314	-1243.30213	1346.39301	-529.82927	-1067.27143	1238.96780	-695.98966	-1245.74395	1348.86226	-631.88101	-1102.33954	1732.19225	-592.61568	-1011.27883	1669.66912	-413.73571	-1018.74612	1683.01701	-765.65038	-975.57806	1663.81204	-570.53064	-970.51609	1666.09763	-604.99257	-1042.06743	1531.08558	-356.07803	-1171.00628	1355.77507	-399.95478	-1139.85234	1355.75715	-336.92228	-1084.57886	1225.15463	-343.81046	-1064.19880	1094.05238	-356.34740	-1089.53228	1085.17260	-333.65862	-1024.64298	1559.41696	-822.54668	-1127.31378	1343.65599	-764.13627	-1086.52201	1351.73914	-832.33156	-1032.37052	1250.80905	-809.52902	-1013.94896	1095.44249	-797.10549	-1033.05829	1091.41924	-822.62123	-1168.41738	1202.99201	-468.88101	-1165.80135	1193.73578	-675.12795	-1157.77850	1195.92985	-480.46774	-1161.72758	1199.92332	-645.51455	
35	0.34000000	-1115.08227	794.43097	-445.55465	-1085.39516	720.75841	-464.81917	-1220.16791	404.95222	-459.96339	-1294.85016	371.81246	-489.25780	-1116.40696	353.63381	-433.58485	-1074.88026	379.19806	-494.85571	-1142.06659	795.79841	-711.64116	-1121.04717	698.63496	-711.97791	-1242.51347	407.30528	-698.00588	-1310.95623	371.26667	-662.19914	-1135.70388	352.93743	-736.96491	-1098.61016	376.21136	-679.41231	-1128.50362	615.53388	-440.11145	-1153.89412	747.92523	-428.51796	-1195.32616	643.74437	-422.41037	-1204.97658	725.98042	-724.70529	-1229.29419	605.84430	-734.86826	-1084.55908	1113.67116	-410.88038	-1076.29189	999.54093	-423.09650	-1128.44462	974.75988	-386.62366	-1193.30741	1103.24325	-386.57950	-1181.48586	986.38951	-398.10773	-1120.37657	1063.79495	-766.06657	-1106.29984	929.12163	-736.41953	-1233.48288	1053.46660	-734.15419	-1212.10064	916.09672	-719.96240	-1070.70424	1255.76987	-446.91737	-1241.88508	1345.98493	-529.71989	-1066.74360	1237.48307	-695.98424	-1244.22801	1348.58076	-631.66181	-1095.69829	1730.07047	-591.86615	-1005.40322	1666.95195	-413.10861	-1012.00738	1680.51674	-764.78689	-969.50666	1660.78585	-569.41941	-964.24491	1663.29034	-604.23058	-1037.75856	1528.73872	-355.44579	-1168.54386	1355.01874	-399.00341	-1137.60282	1354.44787	-336.19924	-1082.87631	1223.56130	-343.25973	-1062.95263	1092.20456	-355.88271	-1088.40226	1083.59943	-333.53915	-1019.06257	1557.28786	-822.01619	-1124.12816	1342.46525	-764.43556	-1082.98337	1350.19319	-832.39169	-1029.37291	1249.06347	-809.35268	-1011.41299	1093.73761	-796.56658	-1030.48334	1089.77392	-821.94768	-1168.49462	1201.78035	-469.16554	-1165.72903	1193.04367	-675.43215	-1157.95226	1195.08059	-480.93622	-1161.73865	1199.27645	-645.68780	
